<svg viewBox="0 0 83.96388123616809 50" xmlns="http://www.w3.org/2000/svg" xmlns:xlink="http://www.w3.org/1999/xlink" version="1.1" class="jsx-2263963463 artboard-inner" style="width: 44px; height: 26.2017px; max-height: 100%;"><g transform="translate(-5.166528992033193 -22.14846061726102) scale(0.942969320259495)" id="lockup4-icon"><g fill="#000000"><path d="M88.79 48.368l-2.389-3.379v-.671l2.182-3.124 5.938-5.922-10.589 3.185-1.851 3.664H13.937L8.778 43.49l-3.299 6.598 1.154 8.522 4.838 7.698 7.643 3.031 25.209-.342 3.354 4.404 7.508 3.111-.071-10.279 26.973-19.35 1.704 3.805 9.511 3.346-4.512-5.666zM44.167 35.135l-1.063-.201.518-2.74 1.063.201-.518 2.74zm-16.951-1.84l-.063-2.789 1.081-.024.063 2.788-1.081.025zm15.847-3.592l-.17-.726-1.101-1.443.861-.655 1.238 1.626.225.949-1.053.249zm-14.069-.695l-.997-.418.564-1.349 1.133-1.067.741.788-.965.91-.476 1.136zm10.941-3.151l-1.837-1.005-.464-.039.089-1.078.693.058 2.038 1.116-.519.948zm-7.496-.419l-.357-1.021 2.653-.929.208.018-.062.747.103.294-2.545.891z"></path><path d="M11.27 35.155l-.519-2.74 1.063-.201.518 2.741-1.062.2zm17.027-1.884l-1.105.019.011-2.788 1.032-.019-.013 2.79.075-.002zm-15.925-3.549l-1.053-.248.225-.95 1.238-1.626.86.655-1.099 1.443-.171.726zm14.069-.694l-.476-1.137-.965-.91.741-.787 1.133 1.067.564 1.35-.997.417zm-10.939-3.151l-.519-.949 2.037-1.116.692-.057.089 1.078-.463.038-1.836 1.006zm7.495-.419l-2.545-.891.104-.294-.063-.748.208-.017 2.653.929-.357 1.021zM30.352 31.926l-1.345 1.178.713.814 1.172-1.026.957-.297-.321-1.033zM34.472 31.332l-.127 1.074.806.096 1.501.894.553-.93-1.697-1.011zM39.183 34.382l-.194-.227-.722.62-.087.026.011.039-.023.02.045.052.625 2.095-.01.074.032.004.01.032.073-.021.957.124.039-.302zM17.149 34.807l-.086-.027-.719-.624-.196.225-.771 2.532.037.301.958-.117.073.021.01-.032.032-.004-.008-.074.637-2.092.045-.051-.023-.02zM19.815 31.455l-1.697 1.011.553.93 1.501-.894.807-.096-.127-1.074zM26.998 35.357l-.004.342.031 2.301.637-.008.637.008.03-2.301v-.342zM26.998 39.381l-.004.343.031 1.681.637-.008.637.008.03-1.681v-.343zM23.796 31.562l-.32 1.033.957.297 1.171 1.026.712-.814-1.344-1.178z"></path></g></g></svg>